<mxfile host="65bd71144e" modified="2021-01-11T16:46:44.608Z" agent="5.0 (Windows NT 10.0; Win64; x64) AppleWebKit/537.36 (KHTML, like Gecko) Code/1.52.1 Chrome/83.0.4103.122 Electron/9.3.5 Safari/537.36" etag="k5_g29Lcb32OY0J7N37E" version="13.10.0" type="embed">
    <diagram id="YOmrY2l0VS_jEYuYfscs" name="Page-1">
        <mxGraphModel dx="2049" dy="659" grid="1" gridSize="10" guides="1" tooltips="1" connect="1" arrows="1" fold="1" page="1" pageScale="1" pageWidth="850" pageHeight="1100" math="0" shadow="0">
            <root>
                <mxCell id="0"/>
                <mxCell id="1" parent="0"/>
                <mxCell id="PpI-s0z6bKK_dOPaGt0t-24" value="" style="rounded=1;whiteSpace=wrap;html=1;strokeWidth=3;" parent="1" vertex="1">
                    <mxGeometry x="70" y="210" width="310" height="70" as="geometry"/>
                </mxCell>
                <mxCell id="PpI-s0z6bKK_dOPaGt0t-9" value="" style="rounded=1;whiteSpace=wrap;html=1;strokeWidth=2;fillColor=#f5f5f5;strokeColor=#666666;fontColor=#333333;" parent="1" vertex="1">
                    <mxGeometry x="-30" y="165" width="110" height="160" as="geometry"/>
                </mxCell>
                <mxCell id="PpI-s0z6bKK_dOPaGt0t-8" value="" style="rounded=1;whiteSpace=wrap;html=1;strokeWidth=2;fillColor=#f5f5f5;strokeColor=#666666;fontColor=#333333;" parent="1" vertex="1">
                    <mxGeometry x="295" y="140" width="500" height="310" as="geometry"/>
                </mxCell>
                <mxCell id="PpI-s0z6bKK_dOPaGt0t-2" value="" style="rounded=1;whiteSpace=wrap;html=1;fillColor=#f8cecc;strokeColor=#b85450;strokeWidth=3;" parent="1" vertex="1">
                    <mxGeometry x="295" y="210" width="60" height="70" as="geometry"/>
                </mxCell>
                <mxCell id="PpI-s0z6bKK_dOPaGt0t-4" value="" style="rounded=1;whiteSpace=wrap;html=1;fillColor=#d5e8d4;strokeColor=#82b366;strokeWidth=3;" parent="1" vertex="1">
                    <mxGeometry x="15" y="210" width="60" height="70" as="geometry"/>
                </mxCell>
                <mxCell id="PpI-s0z6bKK_dOPaGt0t-5" value="" style="endArrow=classic;html=1;entryX=0;entryY=0.5;entryDx=0;entryDy=0;strokeWidth=2;dashed=1;" parent="1" target="PpI-s0z6bKK_dOPaGt0t-2" edge="1">
                    <mxGeometry width="50" height="50" relative="1" as="geometry">
                        <mxPoint x="90" y="245" as="sourcePoint"/>
                        <mxPoint x="290" y="247" as="targetPoint"/>
                    </mxGeometry>
                </mxCell>
                <mxCell id="PpI-s0z6bKK_dOPaGt0t-6" value="Message&lt;br&gt;Parser" style="rounded=1;whiteSpace=wrap;html=1;fillColor=#ffe6cc;strokeColor=#d79b00;" parent="1" vertex="1">
                    <mxGeometry x="425" y="210" width="120" height="60" as="geometry"/>
                </mxCell>
                <mxCell id="PpI-s0z6bKK_dOPaGt0t-7" value="&lt;b&gt;Handler_1&lt;/b&gt;" style="rounded=1;whiteSpace=wrap;html=1;fillColor=#dae8fc;strokeColor=#6c8ebf;" parent="1" vertex="1">
                    <mxGeometry x="630" y="170" width="120" height="60" as="geometry"/>
                </mxCell>
                <mxCell id="PpI-s0z6bKK_dOPaGt0t-11" value="" style="endArrow=classic;html=1;strokeWidth=3;exitX=1.033;exitY=0.414;exitDx=0;exitDy=0;entryX=0;entryY=0.5;entryDx=0;entryDy=0;exitPerimeter=0;" parent="1" source="PpI-s0z6bKK_dOPaGt0t-2" target="PpI-s0z6bKK_dOPaGt0t-6" edge="1">
                    <mxGeometry width="50" height="50" relative="1" as="geometry">
                        <mxPoint x="85" y="440" as="sourcePoint"/>
                        <mxPoint x="135" y="390" as="targetPoint"/>
                    </mxGeometry>
                </mxCell>
                <mxCell id="PpI-s0z6bKK_dOPaGt0t-12" value="&lt;b&gt;Handler_2&lt;/b&gt;" style="rounded=1;whiteSpace=wrap;html=1;fillColor=#e1d5e7;strokeColor=#9673a6;" parent="1" vertex="1">
                    <mxGeometry x="630" y="235" width="120" height="60" as="geometry"/>
                </mxCell>
                <mxCell id="PpI-s0z6bKK_dOPaGt0t-13" value="&lt;b&gt;Handler_N&lt;/b&gt;" style="rounded=1;whiteSpace=wrap;html=1;fillColor=#bac8d3;strokeColor=#23445d;" parent="1" vertex="1">
                    <mxGeometry x="630" y="370" width="120" height="60" as="geometry"/>
                </mxCell>
                <mxCell id="PpI-s0z6bKK_dOPaGt0t-14" value="" style="endArrow=none;dashed=1;html=1;strokeWidth=3;exitX=0.5;exitY=1;exitDx=0;exitDy=0;entryX=0.5;entryY=0;entryDx=0;entryDy=0;" parent="1" source="PpI-s0z6bKK_dOPaGt0t-12" target="PpI-s0z6bKK_dOPaGt0t-13" edge="1">
                    <mxGeometry width="50" height="50" relative="1" as="geometry">
                        <mxPoint x="85" y="540" as="sourcePoint"/>
                        <mxPoint x="135" y="490" as="targetPoint"/>
                    </mxGeometry>
                </mxCell>
                <mxCell id="PpI-s0z6bKK_dOPaGt0t-15" value="" style="shape=cylinder;whiteSpace=wrap;html=1;boundedLbl=1;backgroundOutline=1;fillColor=#f8cecc;strokeColor=#b85450;" parent="1" vertex="1">
                    <mxGeometry x="850" y="360" width="60" height="80" as="geometry"/>
                </mxCell>
                <mxCell id="PpI-s0z6bKK_dOPaGt0t-16" value="" style="endArrow=classic;html=1;strokeWidth=3;exitX=1;exitY=0.5;exitDx=0;exitDy=0;entryX=0;entryY=0.5;entryDx=0;entryDy=0;" parent="1" source="PpI-s0z6bKK_dOPaGt0t-13" target="PpI-s0z6bKK_dOPaGt0t-15" edge="1">
                    <mxGeometry width="50" height="50" relative="1" as="geometry">
                        <mxPoint x="90" y="520" as="sourcePoint"/>
                        <mxPoint x="140" y="470" as="targetPoint"/>
                    </mxGeometry>
                </mxCell>
                <mxCell id="PpI-s0z6bKK_dOPaGt0t-17" value="&lt;b&gt;&lt;font style=&quot;font-size: 15px&quot;&gt;Redis Channel&lt;/font&gt;&lt;/b&gt;" style="text;html=1;strokeColor=none;fillColor=none;align=center;verticalAlign=middle;whiteSpace=wrap;rounded=0;" parent="1" vertex="1">
                    <mxGeometry x="860" y="400" width="40" height="20" as="geometry"/>
                </mxCell>
                <mxCell id="PpI-s0z6bKK_dOPaGt0t-18" value="" style="ellipse;whiteSpace=wrap;html=1;aspect=fixed;" parent="1" vertex="1">
                    <mxGeometry x="545" y="240" width="10" height="10" as="geometry"/>
                </mxCell>
                <mxCell id="PpI-s0z6bKK_dOPaGt0t-19" value="" style="ellipse;whiteSpace=wrap;html=1;aspect=fixed;" parent="1" vertex="1">
                    <mxGeometry x="620" y="195" width="10" height="10" as="geometry"/>
                </mxCell>
                <mxCell id="PpI-s0z6bKK_dOPaGt0t-20" value="" style="ellipse;whiteSpace=wrap;html=1;aspect=fixed;" parent="1" vertex="1">
                    <mxGeometry x="620" y="265" width="10" height="10" as="geometry"/>
                </mxCell>
                <mxCell id="PpI-s0z6bKK_dOPaGt0t-21" value="" style="endArrow=none;html=1;strokeWidth=3;exitX=1;exitY=0;exitDx=0;exitDy=0;entryX=0;entryY=0;entryDx=0;entryDy=0;" parent="1" source="PpI-s0z6bKK_dOPaGt0t-18" target="PpI-s0z6bKK_dOPaGt0t-19" edge="1">
                    <mxGeometry width="50" height="50" relative="1" as="geometry">
                        <mxPoint x="90" y="520" as="sourcePoint"/>
                        <mxPoint x="140" y="470" as="targetPoint"/>
                    </mxGeometry>
                </mxCell>
                <mxCell id="PpI-s0z6bKK_dOPaGt0t-22" value="" style="ellipse;whiteSpace=wrap;html=1;aspect=fixed;" parent="1" vertex="1">
                    <mxGeometry x="620" y="400" width="10" height="10" as="geometry"/>
                </mxCell>
                <mxCell id="PpI-s0z6bKK_dOPaGt0t-25" value="&lt;b&gt;Websocket&lt;/b&gt;" style="text;html=1;strokeColor=none;fillColor=none;align=center;verticalAlign=middle;whiteSpace=wrap;rounded=0;" parent="1" vertex="1">
                    <mxGeometry x="200" y="185" width="40" height="20" as="geometry"/>
                </mxCell>
                <mxCell id="PpI-s0z6bKK_dOPaGt0t-26" value="&lt;b&gt;&lt;font style=&quot;font-size: 19px&quot;&gt;Client&lt;/font&gt;&lt;/b&gt;" style="text;html=1;strokeColor=none;fillColor=none;align=center;verticalAlign=middle;whiteSpace=wrap;rounded=0;" parent="1" vertex="1">
                    <mxGeometry x="5" y="170" width="40" height="20" as="geometry"/>
                </mxCell>
                <mxCell id="PpI-s0z6bKK_dOPaGt0t-27" value="&lt;b&gt;&lt;font style=&quot;font-size: 20px&quot;&gt;Server&lt;/font&gt;&lt;/b&gt;" style="text;html=1;strokeColor=none;fillColor=none;align=center;verticalAlign=middle;whiteSpace=wrap;rounded=0;" parent="1" vertex="1">
                    <mxGeometry x="450" y="150" width="40" height="20" as="geometry"/>
                </mxCell>
                <mxCell id="PpI-s0z6bKK_dOPaGt0t-29" value="" style="rounded=1;whiteSpace=wrap;html=1;strokeWidth=2;fillColor=#bac8d3;strokeColor=#23445d;" parent="1" vertex="1">
                    <mxGeometry x="240" y="220" width="35" height="20" as="geometry"/>
                </mxCell>
                <mxCell id="PpI-s0z6bKK_dOPaGt0t-30" value="" style="rounded=1;whiteSpace=wrap;html=1;strokeWidth=2;fillColor=#e1d5e7;strokeColor=#9673a6;" parent="1" vertex="1">
                    <mxGeometry x="191.5" y="220" width="35" height="20" as="geometry"/>
                </mxCell>
                <mxCell id="PpI-s0z6bKK_dOPaGt0t-31" value="" style="rounded=1;whiteSpace=wrap;html=1;strokeWidth=2;fillColor=#dae8fc;strokeColor=#6c8ebf;" parent="1" vertex="1">
                    <mxGeometry x="100" y="220" width="35" height="20" as="geometry"/>
                </mxCell>
                <mxCell id="PpI-s0z6bKK_dOPaGt0t-32" value="" style="rounded=1;whiteSpace=wrap;html=1;strokeWidth=2;fillColor=#bac8d3;strokeColor=#23445d;" parent="1" vertex="1">
                    <mxGeometry x="146" y="220" width="35" height="20" as="geometry"/>
                </mxCell>
            </root>
        </mxGraphModel>
    </diagram>
</mxfile>